<?xml version="1.0" encoding="UTF-8" standalone="no"?>
<!-- Created with Inkscape (http://www.inkscape.org/) -->

<svg
   version="1.1"
   id="svg2"
   xml:space="preserve"
   width="419.67999"
   height="491.51999"
   viewBox="0 0 419.67999 491.51999"
   sodipodi:docname="copy.eps"
   xmlns:inkscape="http://www.inkscape.org/namespaces/inkscape"
   xmlns:sodipodi="http://sodipodi.sourceforge.net/DTD/sodipodi-0.dtd"
   xmlns="http://www.w3.org/2000/svg"
   xmlns:svg="http://www.w3.org/2000/svg"><defs
     id="defs6" /><sodipodi:namedview
     id="namedview4"
     pagecolor="#ffffff"
     bordercolor="#666666"
     borderopacity="1.0"
     inkscape:pageshadow="2"
     inkscape:pageopacity="0.0"
     inkscape:pagecheckerboard="0" /><g
     id="g8"
     inkscape:groupmode="layer"
     inkscape:label="ink_ext_XXXXXX"
     transform="matrix(1.3333333,0,0,-1.3333333,0,491.52)"><g
       id="g10"
       transform="scale(0.1)"><path
         d="M 676.645,3019.86 H 378.379 c -72.316,0 -138.102,-29.63 -185.824,-77.36 -47.727,-47.72 -77.356,-113.51 -77.356,-185.82 V 378.371 c 0,-72.312 29.629,-138.09 77.356,-185.82 47.722,-47.719 113.508,-77.352 185.824,-77.352 H 2092.56 c 72.31,0 138.1,29.633 185.83,77.352 47.72,47.73 77.35,113.508 77.35,185.82 V 551.34 H 1055.02 c -104.114,0 -198.719,42.558 -267.27,111.101 C 719.199,731 676.645,825.609 676.645,929.719 Z m -298.266,115.2 H 791.848 V 929.719 c 0,-72.309 29.621,-138.098 77.351,-185.821 47.727,-47.726 113.512,-77.347 185.821,-77.347 h 1358.32 57.6 V 608.949 378.371 c 0,-104.109 -42.55,-198.723 -111.11,-267.269 C 2291.29,42.5508 2196.68,0 2092.56,0 H 378.379 C 274.262,0 179.652,42.5508 111.105,111.102 42.5547,179.648 0,274.262 0,378.371 V 2756.68 c 0,104.12 42.5547,198.72 111.105,267.27 68.547,68.55 163.157,111.11 267.274,111.11 v 0"
         style="fill:#100f0d;fill-opacity:1;fill-rule:nonzero;stroke:none"
         id="path12" /><path
         d="M 2769.2,3571.2 H 1055.03 c -72.315,0 -138.1,-29.63 -185.831,-77.35 -47.722,-47.73 -77.351,-113.52 -77.351,-185.83 V 929.719 c 0,-72.309 29.629,-138.098 77.351,-185.821 47.731,-47.718 113.516,-77.347 185.831,-77.347 H 2769.2 c 72.31,0 138.1,29.629 185.83,77.347 47.72,47.723 77.35,113.512 77.35,185.821 V 3308.02 c 0,72.31 -29.63,138.1 -77.35,185.83 -47.73,47.72 -113.52,77.35 -185.83,77.35 z M 1055.03,3686.4 H 2769.2 c 104.12,0 198.73,-42.55 267.27,-111.1 68.56,-68.55 111.11,-163.17 111.11,-267.28 V 929.719 C 3147.58,825.609 3105.03,731 3036.48,662.441 2967.93,593.898 2873.32,551.34 2769.2,551.34 H 1055.03 c -104.116,0 -198.725,42.558 -267.28,111.101 C 719.199,731 676.645,825.609 676.645,929.719 V 3308.02 c 0,104.11 42.554,198.73 111.105,267.28 68.555,68.55 163.164,111.1 267.28,111.1 v 0"
         style="fill:#100f0d;fill-opacity:1;fill-rule:nonzero;stroke:none"
         id="path14" /></g></g></svg>
